<svg version="1.2" xmlns="http://www.w3.org/2000/svg" viewBox="0 0 466 146" width="466" height="146">
	<title>logo_small</title>
	<style>
		.s0 { fill: #cfcfcf } 
		.s1 { fill: #ffffff } 
	</style>
	<g id="mana">
		<path id="MODULAR ABILITIY &amp; NETWORKED ATT" class="s0" aria-label="MODULAR ABILITIY &amp; NETWORKED ATTRIBUTES"  d="m4.5 145.3h-2.3v-14.5h2.9l1.4 4.6q0.2 0.7 0.4 1.3 0.1 0.6 0.1 0.8 0.1-0.2 0.2-0.8 0.2-0.6 0.4-1.3l1.3-4.6h2.9v14.5h-2.3v-4.5q0-1 0.1-2.2 0-1.1 0.1-2.3 0.1-1.2 0.2-2.3 0.1-1 0.2-1.8l-1.9 6.9h-2.3l-2-6.9q0.1 0.8 0.2 1.8 0.1 1 0.2 2.2 0.1 1.1 0.1 2.3 0.1 1.2 0.1 2.3zm14.4 0.2q-1.4 0-2.4-0.5-1-0.6-1.6-1.5-0.5-1-0.5-2.3v-6.3q0-1.4 0.5-2.3 0.5-1 1.5-1.5 1.1-0.6 2.5-0.6 1.4 0 2.4 0.6 1 0.5 1.5 1.5 0.6 0.9 0.6 2.2v6.4q0 1.3-0.6 2.3-0.5 0.9-1.5 1.5-1 0.5-2.4 0.5zm0-2.2q1 0 1.5-0.5 0.5-0.6 0.5-1.6v-6.4q0-1-0.5-1.5-0.5-0.6-1.5-0.6-1 0-1.6 0.6-0.5 0.5-0.5 1.5v6.4q0 1 0.5 1.6 0.6 0.5 1.6 0.5zm11.7 2h-4.3v-14.6h4.3q1.4 0 2.5 0.6 1.1 0.5 1.7 1.6 0.6 1 0.6 2.4v5.4q0 1.4-0.6 2.4-0.6 1.1-1.7 1.6-1.1 0.6-2.5 0.6zm-1.9-12.3l0.1 10h1.8q1 0 1.7-0.6 0.6-0.6 0.6-1.7v-5.4q0-1.1-0.6-1.7-0.7-0.6-1.7-0.6zm13.8 12.5q-2.1 0-3.3-1.2-1.2-1.2-1.2-3.2v-10.4h2.5v10.4q0 1 0.5 1.6 0.5 0.6 1.5 0.6 1 0 1.5-0.6 0.5-0.6 0.5-1.6v-10.4h2.5v10.4q0 2-1.2 3.2-1.2 1.2-3.3 1.2zm16.6-0.2h-8.6v-14.6h2.4v12.3l6.2-0.1zm4.4 0h-2.5l3.6-14.5h3.2l3.7 14.5h-2.6l-0.8-3.5h-3.8zm2.1-9.5l-0.9 3.9h3l-0.9-3.9q-0.2-0.9-0.4-1.7-0.1-0.8-0.2-1.2-0.1 0.4-0.2 1.2-0.2 0.8-0.4 1.7zm10.5 9.5h-2.5v-14.6h4.6q1.4 0 2.5 0.6 1 0.5 1.6 1.5 0.6 0.9 0.6 2.3 0 1.4-0.7 2.5-0.7 1.1-1.9 1.5l2.8 6.2h-2.7l-2.5-5.8h-1.8zm0-12.4v4.4h2.1q1 0 1.6-0.6 0.6-0.5 0.6-1.5 0-1.1-0.6-1.7-0.6-0.6-1.6-0.6zm23 12.4h-2.6l3.7-14.6h3.1l3.7 14.6h-2.5l-0.8-3.5h-3.9zm2.2-9.5l-0.9 3.9h2.9l-0.9-3.9q-0.2-1-0.3-1.8-0.2-0.8-0.3-1.1 0 0.3-0.2 1.1-0.1 0.8-0.3 1.8zm12.6 9.4h-4.6v-14.5h4.4q2.1 0 3.3 1 1.3 1 1.3 2.7 0 1-0.5 1.7-0.4 0.7-1.2 1.1-0.7 0.4-1.7 0.4 1.1-0.1 1.9 0.4 0.8 0.4 1.3 1.2 0.5 0.8 0.5 1.9 0 1.2-0.6 2.2-0.5 0.9-1.6 1.4-1 0.5-2.5 0.5zm-2.2-6.5v4.5h2.1q1.1 0 1.7-0.6 0.6-0.6 0.6-1.6 0-1-0.6-1.7-0.6-0.6-1.7-0.6zm0-5.9v3.9h2q0.9 0 1.5-0.5 0.6-0.6 0.6-1.5 0-0.9-0.6-1.4-0.6-0.6-1.5-0.5zm18 12.4h-8.3v-2.2h2.9v-10.1h-2.9v-2.2h8.3v2.2h-2.9v10.1h2.9zm12.4 0h-8.6v-14.5h2.4l0.1 12.2h6.1zm11.3 0h-8.3v-2.2h2.9v-10.2h-2.9v-2.2h8.3v2.2h-2.9v10.2h2.9zm8.9 0h-2.5v-12.3h-3.7v-2.3h10v2.3h-3.8zm14.8 0h-8.3v-2.2h2.9v-10.1h-2.9v-2.2h8.3v2.2h-2.9v10.1h2.9zm8.9 0h-2.5v-5.3l-4.2-9.2h2.6l2.2 5q0.3 0.6 0.5 1.2 0.2 0.6 0.2 0.9 0.1-0.3 0.3-0.9 0.1-0.6 0.4-1.2l2.2-5h2.5l-4.2 9.2zm21.2 0.2q-1.8 0-2.8-1-1-1-1-2.7v-1.9q0-1.3 0.7-2.2 0.6-0.8 1.9-1l-0.3 0.5q-0.6-0.9-0.9-1.7-0.4-0.8-0.4-1.6 0-1 0.5-1.7 0.5-0.8 1.3-1.2 0.9-0.5 2-0.5 1.2 0 2.1 0.5 0.9 0.5 1.3 1.3 0.5 0.8 0.5 1.9h-2.2q0-0.5-0.2-0.9-0.2-0.3-0.6-0.5-0.4-0.2-0.9-0.2-0.4 0-0.8 0.2-0.4 0.2-0.6 0.5-0.1 0.3-0.1 0.8 0 0.5 0.2 1.1 0.3 0.5 0.7 1.1l2.7 3.9 1.1-2.1h2.4l-2.1 4.1 2.2 3.1h-2.5l-0.9-1.3q-1.4 1.5-3.3 1.5zm0.2-2q0.5 0 1-0.4 0.5-0.3 0.9-0.8l-2.7-3.9q-0.4 0.2-0.6 0.6-0.2 0.3-0.2 0.9v1.9q0 0.8 0.4 1.2 0.4 0.5 1.2 0.5zm22.6 1.8h-2.3v-14.6h3l4 11.8q0-0.6-0.1-1.5-0.1-0.9-0.1-1.8 0-0.9 0-1.6v-6.9h2.2v14.6h-3l-4-11.8q0.1 0.6 0.1 1.4 0.1 0.8 0.1 1.7 0.1 0.8 0.1 1.6zm18.5-0.1l-8.6 0.1v-14.6h8.6v2.2h-6.2v3.8h5.5v2.1h-5.5v4.3h6.2zm8.7 0h-2.5v-12.3h-3.8v-2.3h10v2.3h-3.7zm9.2 0h-2.8l-1.5-14.6h2.2l0.9 10.2q0 0.4 0 0.9 0.1 0.4 0.1 0.9 0 0.5 0 0.9 0.1-0.4 0.1-0.9 0-0.5 0.1-0.9 0-0.5 0.1-0.9l1.1-10.2h2.1l1.1 10.2q0.1 0.4 0.1 0.9 0.1 0.4 0.2 0.9 0 0.5 0.1 0.9 0-0.4 0-0.9 0-0.5 0-0.9 0.1-0.5 0.1-0.9l0.9-10.2h2.1l-1.6 14.6h-2.7l-1.1-10.2q0-0.4-0.1-0.9 0-0.5-0.1-1 0-0.5 0-0.9 0 0.4-0.1 0.9 0 0.5-0.1 1 0 0.5-0.1 0.9zm13.3 0.2q-1.4 0-2.4-0.5-1-0.6-1.6-1.5-0.5-1-0.5-2.3v-6.4q0-1.3 0.5-2.2 0.5-1 1.6-1.5 1-0.6 2.4-0.6 1.4 0 2.4 0.5 1 0.6 1.5 1.5 0.6 1 0.6 2.3v6.4q0 1.3-0.6 2.3-0.5 0.9-1.5 1.5-1 0.5-2.4 0.5zm0-2.2q1 0 1.5-0.6 0.5-0.5 0.5-1.5v-6.4q0-1-0.5-1.6-0.5-0.5-1.5-0.5-1 0-1.6 0.5-0.5 0.6-0.5 1.6v6.4q0 1 0.6 1.5 0.5 0.6 1.5 0.6zm9.9 2h-2.5v-14.6h4.6q1.4 0 2.5 0.5 1 0.6 1.6 1.6 0.6 0.9 0.6 2.2 0 1.5-0.7 2.6-0.7 1.1-2 1.5l2.9 6.2h-2.7l-2.6-5.8h-1.7zm0-12.4v4.4h2.1q1 0 1.6-0.6 0.6-0.6 0.6-1.6 0-1-0.6-1.6-0.6-0.6-1.6-0.6zm11.8 12.4h-2.4l-0.1-14.6h2.5v5.9h1.7l2.7-5.9h2.7l-3.2 7 3.4 7.6h-2.7l-2.9-6.4h-1.7zm18.3-0.1l-8.7 0.1v-14.6h8.7v2.2h-6.2v3.8l5.5-0.1v2.2h-5.5v4.3h6.2zm7.2 0h-4.3v-14.6h4.3q1.5 0 2.6 0.6 1 0.5 1.6 1.5 0.6 1 0.6 2.4v5.5q0 1.4-0.6 2.4-0.5 1-1.6 1.6-1.1 0.6-2.6 0.6zm-1.8-12.3v10h1.8q1.1 0 1.7-0.6 0.7-0.6 0.7-1.7v-5.5q0-1-0.7-1.6-0.6-0.6-1.7-0.6zm23 12.2h-2.5l3.6-14.5h3.2l3.7 14.5h-2.6l-0.8-3.5h-3.8zm2.1-9.5l-0.9 3.9h3l-0.9-3.9q-0.2-0.9-0.4-1.7-0.1-0.8-0.2-1.2-0.1 0.4-0.2 1.2-0.2 0.8-0.4 1.7zm13.7 9.5h-2.5v-12.3h-3.8v-2.3h10.1v2.3h-3.8zm11.9 0h-2.5v-12.2h-3.8v-2.3h10v2.3h-3.7zm8.6 0h-2.5v-14.6h4.6q1.4 0 2.5 0.5 1 0.6 1.6 1.6 0.6 0.9 0.6 2.2 0 1.5-0.7 2.6-0.7 1.1-1.9 1.5l2.8 6.2h-2.7l-2.5-5.8h-1.8zm0-12.4v4.4h2.1q1 0 1.6-0.6 0.6-0.6 0.6-1.6 0-1-0.6-1.6-0.6-0.6-1.6-0.6zm18 12.4h-8.3v-2.2h2.9v-10.2h-3v-2.2h8.3v2.2h-2.9l0.1 10.2h2.9zm7.9 0h-4.6l-0.1-14.6h4.5q2.1 0 3.3 1 1.2 1 1.2 2.7 0 1-0.4 1.7-0.4 0.8-1.2 1.2-0.7 0.4-1.7 0.4v-0.1q1.1 0 1.9 0.4 0.8 0.4 1.3 1.2 0.5 0.8 0.5 1.9 0 1.3-0.6 2.2-0.6 0.9-1.6 1.5-1.1 0.5-2.5 0.5zm-2.2-6.6v4.5h2q1.1 0 1.7-0.6 0.7-0.6 0.7-1.6 0-1-0.7-1.6-0.6-0.7-1.7-0.7zm0-5.9v3.9h2q1 0 1.6-0.5 0.5-0.6 0.5-1.5 0-0.9-0.5-1.4-0.6-0.5-1.6-0.5zm13.9 12.7q-2.1 0-3.3-1.2-1.2-1.2-1.2-3.2v-10.4h2.4l0.1 10.4q0 1 0.5 1.6 0.5 0.6 1.5 0.6 0.9 0 1.5-0.6 0.5-0.6 0.5-1.6v-10.4h2.5v10.4q0 2-1.2 3.2-1.2 1.1-3.3 1.2zm13.1-0.3h-2.5v-12.2h-3.8v-2.3h10v2.3h-3.7zm15 0h-8.6v-14.6h8.6v2.2h-6.2v3.8h5.5v2.1h-5.5v4.3h6.2zm7.5 0.2q-1.5 0-2.6-0.5-1.1-0.5-1.7-1.4-0.6-1-0.6-2.2h2.5q0 0.9 0.6 1.4 0.7 0.5 1.8 0.5 1.1 0 1.7-0.5 0.6-0.5 0.6-1.4 0-0.7-0.5-1.3-0.4-0.5-1.2-0.7l-1.6-0.5q-1.7-0.4-2.7-1.5-0.9-1.2-0.9-2.8 0-1.2 0.6-2.2 0.5-0.9 1.5-1.4 1.1-0.5 2.4-0.5 2.1 0 3.4 1.1 1.2 1.1 1.2 2.9h-2.5q0-0.8-0.5-1.3-0.6-0.5-1.6-0.5-0.9 0-1.5 0.5-0.5 0.4-0.5 1.3 0 0.7 0.4 1.3 0.4 0.5 1.2 0.7l1.7 0.5q1.7 0.4 2.6 1.5 0.9 1.2 0.9 2.8 0 1.3-0.6 2.2-0.6 0.9-1.6 1.5-1.1 0.5-2.5 0.5z"/>
		<g id="mana">
			<path id="a2" fill-rule="evenodd" class="s1" d="m406.8 116.1c-32.2 0-58.2-25.9-58.2-58.1 0-32.1 26-58.1 58.2-58.1 10.5 0 20.4 2.8 28.9 7.6 0.6-4.3 4.4-7.6 8.9-7.6h18.5c1.1 0 2 0.9 2 2v105.2c0 5-4.1 9-9 9h-18.5c-1.1 0-2-0.9-2-2v-5.5c-8.5 4.8-18.3 7.5-28.8 7.5zm28.7-58.4c0-16.1-12.2-29.1-28.3-29.1-16.1 0-29.1 13-29.1 29.1 0 16 13 29 29.1 29 16.1 0 28.3-13 28.3-29z"/>
			<path id="n" fill-rule="evenodd" class="s1" d="m261.7 58c0-32.1 26-58.1 58.2-58.1 32.2 0 58.2 26 58.2 58.1q0 0 0 0v49.1c0 5-4 9-9 9h-18.5c-0.9 0-1.6-0.5-1.9-1.3v-56.8h-0.1q0-0.2 0-0.3c0-16.1-12.2-29.1-28.3-29.1-16.1 0-29.1 13-29.1 29.1q0 0.1 0 0.3h-29.5v0.1q0 0 0-0.1z"/>
			<path id="a" fill-rule="evenodd" class="s1" d="m233 116.1c-32.2 0-58.2-25.9-58.2-58.1 0-32.1 26-58.1 58.2-58.1 10.5 0 20.3 2.8 28.8 7.6 0.7-4.3 4.4-7.6 8.9-7.6h11.5c5 0 9 4.1 9 9v98.2c0 5-4 9-9 9h-18.5c-1.1 0-2-0.9-2-2v-5.5c-8.5 4.8-18.3 7.5-28.7 7.5zm28.7-58.4c0-16.1-12.2-29.1-28.3-29.1-16.1 0-29.1 13-29.1 29.1 0 16 13 29 29.1 29 16.1 0 28.3-13 28.3-29z"/>
			<path id="m" fill-rule="evenodd" class="s1" d="m28.5 116.2h-18.5c-5 0-9-4-9-9v-105.3c0-1.1 0.9-2 2-2h18.5c4.5 0 8.2 3.3 8.9 7.6 8.4-4.8 18.3-7.6 28.8-7.6 17.3 0 32.8 7.5 43.4 19.5 10.7-12 26.2-19.5 43.5-19.5 32.2 0 58.2 26 58.2 58.1q0 3-0.3 5.9v-5.9h-29.1q0 0 0-0.1c0-16-12.3-29-28.4-29-15.9 0-28.8 12.7-29.1 28.5h0.1v24.2c0 8.1-6.6 14.7-14.8 14.7-8.1 0-14.7-6.6-14.7-14.7v-23.6h-0.1v0.1q0 0 0-0.1 0-0.1 0-0.2 0-0.1 0-0.1c0-16.1-12.2-29.1-28.3-29.1-16.1 0-29.1 13-29.1 29v0.1q0 0.1 0 0.1h-0.1v56.8c-0.1 0.9-1 1.6-1.9 1.6z"/>
		</g>
	</g>
</svg>